<?xml version="1.0" standalone="no"?>
<!DOCTYPE svg PUBLIC "-//W3C//DTD SVG 20010904//EN"
 "http://www.w3.org/TR/2001/REC-SVG-20010904/DTD/svg10.dtd">
<svg version="1.0" xmlns="http://www.w3.org/2000/svg"
 width="800.000000pt" height="800.000000pt" viewBox="0 0 800.000000 800.000000"
 preserveAspectRatio="xMidYMid meet">
<metadata>
Created by potrace 1.14, written by Peter Selinger 2001-2017
</metadata>
<g transform="translate(0.000000,800.000000) scale(0.100000,-0.100000)"
fill="#000000" stroke="none">
<path d="M950 4005 l0 -2785 490 0 490 0 0 910 0 910 288 0 c421 0 618 22 804
90 130 48 212 102 323 214 252 255 336 547 367 1289 24 559 -20 1143 -108
1435 -97 324 -306 547 -602 645 -219 73 -187 71 -1169 74 l-883 4 0 -2786z
m1545 1877 c77 -29 123 -66 158 -131 49 -89 66 -203 79 -533 13 -338 0 -817
-27 -968 -26 -141 -78 -231 -159 -272 -81 -42 -129 -48 -378 -48 l-238 0 0
991 0 991 253 -4 c227 -4 258 -7 312 -26z"/>
<path d="M3920 6778 c0 -7 191 -1259 424 -2783 l423 -2770 719 -3 720 -2 178
1167 c98 643 288 1888 422 2767 134 880 244 1608 244 1618 0 17 -21 18 -477
16 l-478 -3 -275 -2255 -275 -2255 -37 -3 c-33 -3 -37 0 -42 25 -3 15 -129
1018 -281 2228 -151 1210 -277 2215 -280 2233 l-6 32 -489 0 c-386 0 -490 -3
-490 -12z"/>
</g>
</svg>
