<?xml version="1.0" standalone="no"?>
<!DOCTYPE svg PUBLIC "-//W3C//DTD SVG 20010904//EN"
 "http://www.w3.org/TR/2001/REC-SVG-20010904/DTD/svg10.dtd">
<svg version="1.0" xmlns="http://www.w3.org/2000/svg"
 width="800.000000pt" height="800.000000pt" viewBox="0 0 800.000000 800.000000"
 preserveAspectRatio="xMidYMid meet">
<metadata>
Created by potrace 1.14, written by Peter Selinger 2001-2017
</metadata>
<g transform="translate(0.000000,800.000000) scale(0.100000,-0.100000)"
fill="#000000" stroke="none">
<path d="M990 4000 l0 -2750 480 0 480 0 0 900 0 900 310 0 c404 0 563 17 745
80 142 49 206 87 325 194 132 119 239 310 295 529 98 387 123 1203 55 1791
-47 401 -132 622 -309 810 -134 140 -296 222 -536 268 -106 21 -142 22 -977
25 l-868 4 0 -2751z m1482 1866 c235 -50 278 -198 278 -956 0 -602 -25 -778
-124 -888 -73 -81 -169 -101 -478 -102 l-198 0 0 980 0 980 228 0 c157 0 248
-5 294 -14z"/>
<path d="M3916 6733 c2 -10 51 -331 109 -713 59 -382 153 -1003 211 -1380 58
-377 168 -1099 245 -1605 77 -506 169 -1110 204 -1343 36 -232 65 -427 65
-432 0 -7 254 -10 713 -10 l712 0 174 1143 c95 628 225 1477 287 1887 184
1201 272 1774 324 2118 28 178 50 330 50 338 0 12 -69 14 -473 14 l-473 0
-102 -842 c-57 -464 -177 -1450 -268 -2193 -90 -742 -167 -1367 -170 -1387 -5
-35 -8 -38 -40 -38 -27 0 -35 5 -39 23 -2 12 -106 834 -230 1827 -124 993
-248 1982 -275 2199 -28 217 -50 398 -50 403 0 4 -220 8 -489 8 -461 0 -489
-1 -485 -17z"/>
</g>
</svg>
